<svg xmlns="http://www.w3.org/2000/svg" viewBox="0 0 847.12 205.33"><defs><style>.cls-1{fill:#fff;}</style></defs><g id="Layer_2" data-name="Layer 2"><g id="Layer_1-2" data-name="Layer 1"><path class="cls-1" d="M641.37,74q-2.32-.8-4.57-1.78Z"/><path class="cls-1" d="M804.42,34.7l41.12,23.54L828.66,82.88,797.68,65v101.1L828.87,180l16.58-12,1.67,6.78L807.9,203.63A194.29,194.29,0,0,0,782,191,165.32,165.32,0,0,0,755.53,184v-3.8q5.55-3.81,7.29-8.24,2.53-6.18,2.53-19.34V62.44Q785.12,53.4,804.42,34.7Z"/><path class="cls-1" d="M581.45,47.42c.46,1.11.9,2.24,1.29,3.38l-1.92-4.36C580.88,46.52,581.1,46.86,581.45,47.42Z"/><circle class="cls-1" cx="197.29" cy="22.42" r="22.42"/><path class="cls-1" d="M174.38,72.21c-.31-.85-.65-1.69-1-2.51-.52-1.17-1.08-2.32-1.71-3.43q-4-7.47-17.44-17.09L111.48,83.8A43.61,43.61,0,0,0,104.54,65q-5.52-8.19-17-15.8L45.68,82.94C45.2,76.52,44.3,71.59,43,68.14A50.89,50.89,0,0,0,33,52.48Q23.41,41.85,22.55,40.27a14,14,0,0,1-1.72-6.75q0-10.2,15.52-21L33.76,8.81Q14.94,18,7.47,27.13A32.45,32.45,0,0,0,0,48.32,29.74,29.74,0,0,0,2.16,60q2.16,5.1,8.33,12.28c2.58,3,4.14,5.39,4.67,7.26S16,86.63,16,95.15V149.6q0,13.93-2.66,18.74c-1.77,3.21-4.82,5.68-9.12,7.41v3.44a88.87,88.87,0,0,1,28.41,6.11q13,5.25,27.26,17Q75.05,187,90.3,187q16.22,0,40.5,15.37a122.31,122.31,0,0,1,21-15.08,138,138,0,0,1,25.46-10.49V89.69A50.39,50.39,0,0,0,174.38,72.21ZM81.89,178.76,45.68,163.68V89.91L67.5,72.14Q76.69,78,79.3,83.06t2.59,17.38Zm66.09-.43L111.48,163V91.12l22.38-18.86q9.93,7.62,12,11.57T148,98.41Z"/><path class="cls-1" d="M329.48.19V.37a1.14,1.14,0,0,1,.11-.11Z"/><path class="cls-1" d="M732.15,172.58q-7.14,5.89-10,5.9-2.07,0-4.39-3.88T715.41,159V99.27q0-13.33.88-17.65a21.14,21.14,0,0,1,1.69-5l-5.44-5.43-23.49-22L648.9,86.39q-.72-11.36-5-18.68T625.41,49.18L582.52,84.81q0-11.07-.86-14.8a26.42,26.42,0,0,0-5-9.55q-3.54-4.4-13.35-11.28L538.67,70.11l.15,0v7.4c3.79-2.82,6.35-4.24,7.71-4.24s2.72,1.35,4.28,4q3,5.33,3,17.25v76.86l-5.51,5.68c-2.58-1-6.86-4-9.46-5.92V77.55l-1.77,1.36-3.51-4.45,5.13-4.35Q508.42,62.66,488,49.18q-18.69,15.93-45,24.69c-2.1-.16-4.58-.54-6.67-.92a1.77,1.77,0,0,1,0-.23l-9.18-5.51,0,.07-1-.69-.06,0L330,.53l-.38-.27a1.14,1.14,0,0,0-.11.11c-17.65,17.21-15.47,34.48-15,37.21,0,.25.07.38.07.38q.76,4,5.45,8.2,2.87,2.6,2.87,5.17c0,2.59-1.49,5.05-4.47,7.4s-7.17,3.52-12.56,3.52a59.79,59.79,0,0,1-15.37-2.15,269.74,269.74,0,0,1-29.59-10.92A72.94,72.94,0,0,1,244.7,64.77Q236.27,70.44,221.45,75v53.59l31.42,16.92q-7.14,8.64-14.27,17.3c-1.31,1.58-8.11,8.49-10.2,10.37a63.85,63.85,0,0,1-7.11,5.41,5.77,5.77,0,0,1-2.85.71c-1.48,0-2.9-1.24-4.28-3.73s-2.08-7.85-2.08-16.09V81.36l11.35-11-25.5-21.19L173.37,69.7c.37.82.7,1.66,1,2.51l9,9.15v80.16q0,18.1,3.31,25.36,3.09,6.76,13.33,14.33s4,4.12,6.35,4.12,11.63-3,11.63-3l.19-.2a17.51,17.51,0,0,0,4.59-2.81,38,38,0,0,1,24-8.19,55.43,55.43,0,0,1,16.61,2.44,90.19,90.19,0,0,1,18.48,8.76Q294.24,191,304,186.23a62.94,62.94,0,0,1,20.33-5.72h.08l1.47-.23a49.57,49.57,0,0,1,7.76-.66h0a3.28,3.28,0,0,1,.54.08,117.39,117.39,0,0,1,25.58,6.54q13.1,5,30.07,16.09a136.47,136.47,0,0,1,19.22-13.72A134.51,134.51,0,0,1,422,182.32h0a81.35,81.35,0,0,1,13.5-1.86v0A79.63,79.63,0,0,1,459,184.79q13.66,4.89,34.52,17.53A78.83,78.83,0,0,1,507.6,192q9-5.22,28.36-13.2l7.55,4.92,24.86,18.62L593.59,183l-11.07-11.56v-80l22.73-19.07q9.9,6.75,12.48,11.63,1.86,3.6,1.86,16.09v71.38L609.1,183l25.5,19.32L659.67,183,648.9,171.44V93.77l22.81-21.33,14.4,12.48v86.55a33.75,33.75,0,0,0,4.61,17.08q3.16,5.44,13.84,13.77L735.67,177ZM250.47,112.39V71.88q16.66,11.78,34.33,11.78a61.71,61.71,0,0,0,16.66-2.76l-31.31,41.68Zm46.12,66.23q-17.82-10.92-34.34-10.92a55.2,55.2,0,0,0-9.91,1,81.8,81.8,0,0,0-11.78,3.16l34.63-46.4L296.59,137Zm43.23-105v75.28q0,14.22-1.51,18.75a18.22,18.22,0,0,1-4.16,6.57s0,0,0,0a14.53,14.53,0,0,1-8.23,3.49V119.86l-33.36-17.4,27.7-35.18q7.35-9.33,9.95-15.23A29.67,29.67,0,0,0,332.79,40a19.58,19.58,0,0,0-.17-2.6l35,23.9Q359.5,68.13,339.82,73.6Zm67.09,105.45-37.78-16.81V73.4a67.87,67.87,0,0,0,8.12-5.59l29.66,20.24ZM443,152.76q0,11.64-2,16.52a18.79,18.79,0,0,1-4.77,6.44V80.82l6.78.92Zm66.52,26.29L472,163.68V73.74a76.49,76.49,0,0,1,12.5,3.2q7.32,2.61,25,10.89Z"/><path class="cls-1" d="M538.67,70.11l-5.13,4.35,3.51,4.45,1.77-1.36v-7.4Z"/><path class="cls-1" d="M538.67,70.11l-5.13,4.35,3.51,4.45,1.77-1.36v-7.4Z"/><path class="cls-1" d="M354.36,50.88l-.39-.27.27-.26Z"/><polygon class="cls-1" points="222.86 70.02 227.44 72.75 222.86 77.1 215.78 70.02 222.86 70.02"/><line class="cls-1" x1="427.2" y1="67.21" x2="426.17" y2="66.59"/><line class="cls-1" x1="712.54" y1="71.16" x2="712.18" y2="70.8"/><circle class="cls-1" cx="740.11" cy="122.33" r="22.42"/></g></g></svg>